<mxfile host="app.diagrams.net">
  <diagram name="Ansibleize Everything Strategy" id="ansible-strategy">
    <mxGraphModel dx="1422" dy="794" grid="1" gridSize="10" guides="1" tooltips="1" connect="1" arrows="1" fold="1" page="1" pageScale="1" pageWidth="1400" pageHeight="1000" math="0" shadow="0">
      <root>
        <mxCell id="0" />
        <mxCell id="1" parent="0" />
        
        <!-- Main Title -->
        <mxCell id="title" value="Ansibleize Everything" style="text;html=1;strokeColor=none;fillColor=none;align=center;verticalAlign=middle;whiteSpace=wrap;rounded=0;fontSize=36;fontStyle=1;fontColor=#EE0000;" vertex="1" parent="1">
          <mxGeometry x="400" y="20" width="600" height="50" as="geometry" />
        </mxCell>
        
        <mxCell id="subtitle" value="If you can define it in YAML, you can automate it." style="text;html=1;strokeColor=none;fillColor=#fff2cc;align=center;verticalAlign=middle;whiteSpace=wrap;rounded=1;fontSize=18;fontStyle=2;strokeColor=#d6b656;" vertex="1" parent="1">
          <mxGeometry x="450" y="80" width="500" height="40" as="geometry" />
        </mxCell>
        
        <!-- Core Philosophy -->
        <mxCell id="philosophy-title" value="Core Philosophy" style="text;html=1;strokeColor=none;fillColor=none;align=center;verticalAlign=middle;whiteSpace=wrap;rounded=0;fontSize=24;fontStyle=1" vertex="1" parent="1">
          <mxGeometry x="100" y="150" width="1200" height="40" as="geometry" />
        </mxCell>
        
        <mxCell id="principle1" value="Infrastructure as Code" style="rounded=1;whiteSpace=wrap;html=1;fillColor=#dae8fc;strokeColor=#6c8ebf;fontSize=16;fontStyle=1" vertex="1" parent="1">
          <mxGeometry x="100" y="210" width="360" height="60" as="geometry" />
        </mxCell>
        
        <mxCell id="principle2" value="Idempotent Operations" style="rounded=1;whiteSpace=wrap;html=1;fillColor=#dae8fc;strokeColor=#6c8ebf;fontSize=16;fontStyle=1" vertex="1" parent="1">
          <mxGeometry x="520" y="210" width="360" height="60" as="geometry" />
        </mxCell>
        
        <mxCell id="principle3" value="Self-Documenting Systems" style="rounded=1;whiteSpace=wrap;html=1;fillColor=#dae8fc;strokeColor=#6c8ebf;fontSize=16;fontStyle=1" vertex="1" parent="1">
          <mxGeometry x="940" y="210" width="360" height="60" as="geometry" />
        </mxCell>
        
        <!-- Work Applications -->
        <mxCell id="work-title" value="🏢 Red Hat TAM Work" style="text;html=1;strokeColor=#b85450;fillColor=#f8cecc;align=center;verticalAlign=middle;whiteSpace=wrap;rounded=1;fontSize=20;fontStyle=1" vertex="1" parent="1">
          <mxGeometry x="100" y="310" width="600" height="50" as="geometry" />
        </mxCell>
        
        <mxCell id="work1" value="Customer Environment Setup&#xa;VM provisioning, RHEL deployment, AAP testing" style="rounded=1;whiteSpace=wrap;html=1;fillColor=#ffe6cc;strokeColor=#d79b00;fontSize=14" vertex="1" parent="1">
          <mxGeometry x="100" y="380" width="280" height="70" as="geometry" />
        </mxCell>
        
        <mxCell id="work2" value="Documentation Generation&#xa;Automated reports, customer deliverables" style="rounded=1;whiteSpace=wrap;html=1;fillColor=#ffe6cc;strokeColor=#d79b00;fontSize=14" vertex="1" parent="1">
          <mxGeometry x="420" y="380" width="280" height="70" as="geometry" />
        </mxCell>
        
        <mxCell id="work3" value="Testing & Validation&#xa;Build automation, test capture, CI/CD" style="rounded=1;whiteSpace=wrap;html=1;fillColor=#ffe6cc;strokeColor=#d79b00;fontSize=14" vertex="1" parent="1">
          <mxGeometry x="100" y="470" width="280" height="70" as="geometry" />
        </mxCell>
        
        <mxCell id="work4" value="Configuration Management&#xa;Playbook library, role development" style="rounded=1;whiteSpace=wrap;html=1;fillColor=#ffe6cc;strokeColor=#d79b00;fontSize=14" vertex="1" parent="1">
          <mxGeometry x="420" y="470" width="280" height="70" as="geometry" />
        </mxCell>
        
        <!-- Life Applications -->
        <mxCell id="life-title" value="🏠 Personal Life Automation" style="text;html=1;strokeColor=#82b366;fillColor=#d5e8d4;align=center;verticalAlign=middle;whiteSpace=wrap;rounded=1;fontSize=20;fontStyle=1" vertex="1" parent="1">
          <mxGeometry x="700" y="310" width="600" height="50" as="geometry" />
        </mxCell>
        
        <mxCell id="life1" value="💰 Financial Management&#xa;Bills, budgets, goal tracking, alerts" style="rounded=1;whiteSpace=wrap;html=1;fillColor=#e1d5e7;strokeColor=#9673a6;fontSize=14" vertex="1" parent="1">
          <mxGeometry x="720" y="380" width="280" height="70" as="geometry" />
        </mxCell>
        
        <mxCell id="life2" value="🏭 Home Infrastructure&#xa;Server deployments, monitoring, backups" style="rounded=1;whiteSpace=wrap;html=1;fillColor=#e1d5e7;strokeColor=#9673a6;fontSize=14" vertex="1" parent="1">
          <mxGeometry x="1020" y="380" width="280" height="70" as="geometry" />
        </mxCell>
        
        <mxCell id="life3" value="📊 Life Goals Tracker&#xa;Financial readiness, timeline optimization" style="rounded=1;whiteSpace=wrap;html=1;fillColor=#e1d5e7;strokeColor=#9673a6;fontSize=14" vertex="1" parent="1">
          <mxGeometry x="720" y="470" width="280" height="70" as="geometry" />
        </mxCell>
        
        <mxCell id="life4" value="💻 Development Environment&#xa;Laptop setup, IDE config, tool deployment" style="rounded=1;whiteSpace=wrap;html=1;fillColor=#e1d5e7;strokeColor=#9673a6;fontSize=14" vertex="1" parent="1">
          <mxGeometry x="1020" y="470" width="280" height="70" as="geometry" />
        </mxCell>
        
        <!-- Workflow Process -->
        <mxCell id="workflow-title" value="The Ansible Workflow" style="text;html=1;strokeColor=none;fillColor=none;align=center;verticalAlign=middle;whiteSpace=wrap;rounded=0;fontSize=24;fontStyle=1" vertex="1" parent="1">
          <mxGeometry x="100" y="580" width="1200" height="40" as="geometry" />
        </mxCell>
        
        <mxCell id="step1" value="1. Define Desired State&#xa;Write YAML describing what you want" style="rounded=1;whiteSpace=wrap;html=1;fillColor=#fff2cc;strokeColor=#d6b656;fontSize=14;fontStyle=1" vertex="1" parent="1">
          <mxGeometry x="100" y="640" width="250" height="80" as="geometry" />
        </mxCell>
        
        <mxCell id="arrow1" value="" style="endArrow=classic;html=1;rounded=0;strokeWidth=3;fillColor=#fff2cc;strokeColor=#d6b656;" edge="1" parent="1" source="step1" target="step2">
          <mxGeometry width="50" height="50" relative="1" as="geometry">
            <mxPoint x="600" y="740" as="sourcePoint" />
            <mxPoint x="650" y="690" as="targetPoint" />
          </mxGeometry>
        </mxCell>
        
        <mxCell id="step2" value="2. Create Ansible Role&#xa;Tasks, templates, defaults, handlers" style="rounded=1;whiteSpace=wrap;html=1;fillColor=#fff2cc;strokeColor=#d6b656;fontSize=14;fontStyle=1" vertex="1" parent="1">
          <mxGeometry x="400" y="640" width="250" height="80" as="geometry" />
        </mxCell>
        
        <mxCell id="arrow2" value="" style="endArrow=classic;html=1;rounded=0;strokeWidth=3;fillColor=#fff2cc;strokeColor=#d6b656;" edge="1" parent="1" source="step2" target="step3">
          <mxGeometry width="50" height="50" relative="1" as="geometry">
            <mxPoint x="600" y="740" as="sourcePoint" />
            <mxPoint x="650" y="690" as="targetPoint" />
          </mxGeometry>
        </mxCell>
        
        <mxCell id="step3" value="3. Test with --check --diff&#xa;Verify changes before applying" style="rounded=1;whiteSpace=wrap;html=1;fillColor=#fff2cc;strokeColor=#d6b656;fontSize=14;fontStyle=1" vertex="1" parent="1">
          <mxGeometry x="700" y="640" width="250" height="80" as="geometry" />
        </mxCell>
        
        <mxCell id="arrow3" value="" style="endArrow=classic;html=1;rounded=0;strokeWidth=3;fillColor=#fff2cc;strokeColor=#d6b656;" edge="1" parent="1" source="step3" target="step4">
          <mxGeometry width="50" height="50" relative="1" as="geometry">
            <mxPoint x="600" y="740" as="sourcePoint" />
            <mxPoint x="650" y="690" as="targetPoint" />
          </mxGeometry>
        </mxCell>
        
        <mxCell id="step4" value="4. Deploy & Document&#xa;Run playbook, track changes, repeat" style="rounded=1;whiteSpace=wrap;html=1;fillColor=#fff2cc;strokeColor=#d6b656;fontSize=14;fontStyle=1" vertex="1" parent="1">
          <mxGeometry x="1000" y="640" width="250" height="80" as="geometry" />
        </mxCell>
        
        <!-- Benefits -->
        <mxCell id="benefits-title" value="Why Ansibleize Everything?" style="text;html=1;strokeColor=none;fillColor=none;align=center;verticalAlign=middle;whiteSpace=wrap;rounded=0;fontSize=24;fontStyle=1" vertex="1" parent="1">
          <mxGeometry x="100" y="760" width="1200" height="40" as="geometry" />
        </mxCell>
        
        <mxCell id="benefit1" value="✅ Repeatable" style="rounded=1;whiteSpace=wrap;html=1;fillColor=#d5e8d4;strokeColor=#82b366;fontSize=16;fontStyle=1" vertex="1" parent="1">
          <mxGeometry x="100" y="820" width="200" height="50" as="geometry" />
        </mxCell>
        
        <mxCell id="benefit2" value="✅ Auditable" style="rounded=1;whiteSpace=wrap;html=1;fillColor=#d5e8d4;strokeColor=#82b366;fontSize=16;fontStyle=1" vertex="1" parent="1">
          <mxGeometry x="330" y="820" width="200" height="50" as="geometry" />
        </mxCell>
        
        <mxCell id="benefit3" value="✅ Testable" style="rounded=1;whiteSpace=wrap;html=1;fillColor=#d5e8d4;strokeColor=#82b366;fontSize=16;fontStyle=1" vertex="1" parent="1">
          <mxGeometry x="560" y="820" width="200" height="50" as="geometry" />
        </mxCell>
        
        <mxCell id="benefit4" value="✅ Version Controlled" style="rounded=1;whiteSpace=wrap;html=1;fillColor=#d5e8d4;strokeColor=#82b366;fontSize=16;fontStyle=1" vertex="1" parent="1">
          <mxGeometry x="790" y="820" width="200" height="50" as="geometry" />
        </mxCell>
        
        <mxCell id="benefit5" value="✅ Shareable" style="rounded=1;whiteSpace=wrap;html=1;fillColor=#d5e8d4;strokeColor=#82b366;fontSize=16;fontStyle=1" vertex="1" parent="1">
          <mxGeometry x="1020" y="820" width="200" height="50" as="geometry" />
        </mxCell>
        
        <!-- Stats -->
        <mxCell id="stats-box" value="📊 Current Portfolio&#xa;&#xa;35 Production Roles&#xa;62+ PAI Tools&#xa;Laptop, Server, Finance, Goals" style="rounded=1;whiteSpace=wrap;html=1;fillColor=#f8cecc;strokeColor=#b85450;fontSize=16;fontStyle=1;align=center;" vertex="1" parent="1">
          <mxGeometry x="100" y="900" width="1200" height="80" as="geometry" />
        </mxCell>
        
        <!-- Footer -->
        <mxCell id="footer" value="By Jimmy Byrd (jbyrd@redhat.com) | Red Hat TAM | https://gitlab.cee.redhat.com/jbyrd/ansibleize-everything" style="text;html=1;strokeColor=none;fillColor=none;align=center;verticalAlign=middle;whiteSpace=wrap;rounded=0;fontSize=14;fontStyle=2" vertex="1" parent="1">
          <mxGeometry x="100" y="990" width="1200" height="20" as="geometry" />
        </mxCell>
        
      </root>
    </mxGraphModel>
  </diagram>
</mxfile>

